<svg xmlns="http://www.w3.org/2000/svg" width="512" height="512" viewBox="0 0 256 256" role="img">
  <defs>
    <radialGradient id="glow" cx="50%" cy="48%" r="55%">
      <stop offset="0" stop-color="#f8fafc"/>
      <stop offset="1" stop-color="transparent"/>
    </radialGradient>
    <filter id="softShadow" x="-20%" y="-20%" width="140%" height="150%">
      <feDropShadow dx="0" dy="10" stdDeviation="8" flood-color="#0f172a" flood-opacity=".18"/>
    </filter>
  </defs>
  <rect width="256" height="256" fill="none"/>
  <circle cx="128" cy="128" r="112" fill="url(#glow)"/>
  <g filter="url(#softShadow)">
    
    <ellipse cx="128" cy="190" rx="86" ry="10" fill="rgba(15,23,42,.16)"/>
  
        <path d="M34 155c11-13 31-17 59-12 9-23 23-39 44-48 8 25 30 43 66 56 15 5 24 14 26 25 1 8-5 13-17 13H52c-16 0-25-15-18-34z" fill="#fff" stroke="#111827" stroke-width="4" stroke-linejoin="round"/>
        <path d="M89 144c26 8 58 9 96 3" fill="none" stroke="#e5261f" stroke-width="8" stroke-linecap="round"/>
        <path d="M43 176h181" stroke="#111827" stroke-width="8" stroke-linecap="round"/>
        <path d="M113 132l15 15M134 126l15 17M155 128l14 15" stroke="#111827" stroke-width="3" stroke-linecap="round" opacity=".55"/>
        <path d="M64 181h68l-14 14H60c-8 0-14-4-17-12z" fill="#e5261f"/>
      
  </g>
</svg>
