<svg xmlns="http://www.w3.org/2000/svg" width="512" height="512" viewBox="0 0 256 256" role="img">
  <defs>
    <radialGradient id="glow" cx="50%" cy="48%" r="55%">
      <stop offset="0" stop-color="#f5f1eb"/>
      <stop offset="1" stop-color="transparent"/>
    </radialGradient>
    <filter id="softShadow" x="-20%" y="-20%" width="140%" height="150%">
      <feDropShadow dx="0" dy="10" stdDeviation="8" flood-color="#0f172a" flood-opacity=".18"/>
    </filter>
  </defs>
  <rect width="256" height="256" fill="none"/>
  <circle cx="128" cy="128" r="112" fill="url(#glow)"/>
  <g filter="url(#softShadow)">
    
    <ellipse cx="128" cy="190" rx="86" ry="10" fill="rgba(15,23,42,.16)"/>
  
        <path d="M35 158c14-11 35-14 64-9 9-24 25-38 48-42 10 26 31 44 63 54 9 3 14 8 15 15 1 8-5 13-17 13H53c-17 0-25-15-18-31z" fill="#552c18" stroke="#1f2937" stroke-width="4" stroke-linejoin="round"/>
        <path d="M94 149c28 5 61 4 97 12" fill="none" stroke="#b97949" stroke-width="8" stroke-linecap="round" opacity=".75"/>
        <path d="M40 176h184" stroke="#1f2937" stroke-width="8" stroke-linecap="round"/>
        <path d="M110 142c15 6 35 7 59 3" stroke="#f8d9b0" stroke-width="3" stroke-linecap="round" opacity=".75"/>
        <path d="M121 129l19 14M143 125l18 16" stroke="#f8d9b0" stroke-width="3" stroke-linecap="round" opacity=".7"/>
      
  </g>
</svg>
