<svg xmlns="http://www.w3.org/2000/svg" width="512" height="512" viewBox="0 0 256 256" role="img">
  <defs>
    <radialGradient id="glow" cx="50%" cy="48%" r="55%">
      <stop offset="0" stop-color="#fef3c7"/>
      <stop offset="1" stop-color="transparent"/>
    </radialGradient>
    <filter id="softShadow" x="-20%" y="-20%" width="140%" height="150%">
      <feDropShadow dx="0" dy="10" stdDeviation="8" flood-color="#0f172a" flood-opacity=".18"/>
    </filter>
  </defs>
  <rect width="256" height="256" fill="none"/>
  <circle cx="128" cy="128" r="112" fill="url(#glow)"/>
  <g filter="url(#softShadow)">
    
    <ellipse cx="128" cy="190" rx="86" ry="10" fill="rgba(15,23,42,.16)"/>
  
        <path d="M42 151c10-9 27-12 52-10 9-18 20-31 34-39 10 19 29 34 58 45 19 7 31 16 36 28 2 6-2 12-10 13H57c-16 0-24-13-15-37z" fill="#fff" stroke="#0f172a" stroke-width="4" stroke-linejoin="round"/>
        <path d="M94 141c25 5 50 9 74 6 17 6 30 14 42 25" fill="none" stroke="#f97316" stroke-width="7" stroke-linecap="round"/>
        <path d="M48 171h166" stroke="#0f172a" stroke-width="8" stroke-linecap="round"/>
        <path d="M65 181h56l-11 13H60c-8 0-14-4-17-11z" fill="#f97316"/>
        <path d="M145 181h73c-4 9-11 13-21 13h-65z" fill="#f97316" opacity=".78"/>
        <path d="M113 130l16 17M133 125l15 17M154 128l14 15" stroke="#0f172a" stroke-width="3" stroke-linecap="round" opacity=".55"/>
      
  </g>
</svg>
