<svg width="445" height="445" viewBox="0 0 445 445" fill="none" xmlns="http://www.w3.org/2000/svg">
<path d="M96 190C96 125.383 148.383 73 213 73H370.313C372.349 73 374 74.6508 374 76.6873C374 114.972 342.964 146.008 304.679 146.008H162.022C155.111 146.008 148.236 147.011 141.612 148.984L140.394 149.347C135.321 150.859 130.463 153.018 125.942 155.77C120.773 158.917 116.095 162.808 112.059 167.317L109.511 170.165C105.228 174.95 101.486 180.192 98.3515 185.796L96 190Z" fill="#E5261F"/>
<path d="M91.0872 247.748C98.087 204.102 135.747 172 179.952 172H335.84C340.116 172 342.951 176.433 341.157 180.315L325.665 213.834C313.883 239.326 286.356 253.629 258.723 248.616L224.132 237.518C190.755 226.81 157.859 255.173 163.538 289.762C166.863 310.017 156.628 330.08 138.279 339.277L91.9338 362.507C83.1914 366.889 73.1595 359.535 74.708 349.879L91.0872 247.748Z" fill="#E5261F"/>
</svg>
