<svg xmlns="http://www.w3.org/2000/svg" width="512" height="512" viewBox="0 0 256 256" role="img">
  <defs>
    <radialGradient id="glow" cx="50%" cy="48%" r="55%">
      <stop offset="0" stop-color="#eef6ff"/>
      <stop offset="1" stop-color="transparent"/>
    </radialGradient>
    <filter id="softShadow" x="-20%" y="-20%" width="140%" height="150%">
      <feDropShadow dx="0" dy="10" stdDeviation="8" flood-color="#0f172a" flood-opacity=".18"/>
    </filter>
  </defs>
  <rect width="256" height="256" fill="none"/>
  <circle cx="128" cy="128" r="112" fill="url(#glow)"/>
  <g filter="url(#softShadow)">
    
    <ellipse cx="128" cy="190" rx="86" ry="10" fill="rgba(15,23,42,.16)"/>
  
        <path d="M65 106h82c11 0 20 9 20 20v56H45v-56c0-11 9-20 20-20z" fill="#dbeafe" stroke="#0f172a" stroke-width="4"/>
        <path d="M77 105c2-22 14-34 35-34 20 0 32 12 35 34" fill="none" stroke="#0ea5e9" stroke-width="8" stroke-linecap="round"/>
        <path d="M171 132h31c12 0 22 10 22 22v30h-53z" fill="#e0f2fe" stroke="#0f172a" stroke-width="4"/>
        <path d="M62 138h88M62 159h88" stroke="#fff" stroke-width="6" stroke-linecap="round" opacity=".8"/>
        <path d="M182 143h29M182 160h29" stroke="#0ea5e9" stroke-width="5" stroke-linecap="round"/>
      
  </g>
</svg>
