<svg xmlns="http://www.w3.org/2000/svg" width="512" height="512" viewBox="0 0 256 256" role="img">
  <defs>
    <radialGradient id="glow" cx="50%" cy="48%" r="55%">
      <stop offset="0" stop-color="#eef2f7"/>
      <stop offset="1" stop-color="transparent"/>
    </radialGradient>
    <filter id="softShadow" x="-20%" y="-20%" width="140%" height="150%">
      <feDropShadow dx="0" dy="10" stdDeviation="8" flood-color="#0f172a" flood-opacity=".18"/>
    </filter>
  </defs>
  <rect width="256" height="256" fill="none"/>
  <circle cx="128" cy="128" r="112" fill="url(#glow)"/>
  <g filter="url(#softShadow)">
    
    <ellipse cx="128" cy="190" rx="86" ry="10" fill="rgba(15,23,42,.16)"/>
  
        <path d="M74 57h62c4 42 13 72 27 91 25 1 45 9 60 24 7 8 3 18-9 18H65c-18 0-26-16-15-32 18-26 25-60 24-101z" fill="#334155" stroke="#111827" stroke-width="4" stroke-linejoin="round"/>
        <path d="M85 67h40c2 27 7 53 16 78" stroke="#94a3b8" stroke-width="7" stroke-linecap="round" opacity=".55"/>
        <path d="M54 177h166" stroke="#111827" stroke-width="9" stroke-linecap="round"/>
        <path d="M82 91h56M85 116h60" stroke="#e2e8f0" stroke-width="4" stroke-linecap="round" opacity=".8"/>
        <path d="M116 147c21 10 47 15 78 15" stroke="#334155" stroke-width="7" stroke-linecap="round"/>
      
  </g>
</svg>
