<svg xmlns="http://www.w3.org/2000/svg" width="512" height="512" viewBox="0 0 256 256" role="img">
  <defs>
    <radialGradient id="glow" cx="50%" cy="48%" r="55%">
      <stop offset="0" stop-color="#fff7ed"/>
      <stop offset="1" stop-color="transparent"/>
    </radialGradient>
    <filter id="softShadow" x="-20%" y="-20%" width="140%" height="150%">
      <feDropShadow dx="0" dy="10" stdDeviation="8" flood-color="#0f172a" flood-opacity=".18"/>
    </filter>
  </defs>
  <rect width="256" height="256" fill="none"/>
  <circle cx="128" cy="128" r="112" fill="url(#glow)"/>
  <g filter="url(#softShadow)">
    
    <ellipse cx="128" cy="190" rx="86" ry="10" fill="rgba(15,23,42,.16)"/>
  
        <path d="M37 158c19-11 45-14 78-8 18 3 39 6 62 8 27 2 43 11 49 25 3 8-2 14-14 14H54c-17 0-26-14-17-39z" fill="#ffedd5" stroke="#7c2d12" stroke-width="4" stroke-linejoin="round"/>
        <path d="M67 153c23 21 64 27 124 17" fill="none" stroke="#ea580c" stroke-width="7" stroke-linecap="round"/>
        <path d="M45 185h177" stroke="#7c2d12" stroke-width="8" stroke-linecap="round"/>
        <circle cx="92" cy="153" r="8" fill="#ea580c"/>
        <circle cx="113" cy="156" r="6" fill="#ea580c" opacity=".65"/>
      
  </g>
</svg>
