<svg xmlns="http://www.w3.org/2000/svg" width="512" height="512" viewBox="0 0 256 256" role="img">
  <defs>
    <radialGradient id="glow" cx="50%" cy="48%" r="55%">
      <stop offset="0" stop-color="#fff1f5"/>
      <stop offset="1" stop-color="transparent"/>
    </radialGradient>
    <filter id="softShadow" x="-20%" y="-20%" width="140%" height="150%">
      <feDropShadow dx="0" dy="10" stdDeviation="8" flood-color="#0f172a" flood-opacity=".18"/>
    </filter>
  </defs>
  <rect width="256" height="256" fill="none"/>
  <circle cx="128" cy="128" r="112" fill="url(#glow)"/>
  <g filter="url(#softShadow)">
    
    <ellipse cx="128" cy="190" rx="86" ry="10" fill="rgba(15,23,42,.16)"/>
  
        <path d="M53 153c33 6 65 3 96-11 22-10 40-9 55 3 13 10 18 21 15 33-2 8-9 11-20 9-44-8-89-6-135 4-19 4-30-7-27-23 1-8 7-13 16-15z" fill="#fce7f3" stroke="#881337" stroke-width="4" stroke-linejoin="round"/>
        <path d="M139 143c14 16 25 31 34 46" stroke="#db2777" stroke-width="9" stroke-linecap="round"/>
        <path d="M185 184l19 2-30 50h-18z" fill="#881337"/>
        <path d="M57 190h150" stroke="#db2777" stroke-width="8" stroke-linecap="round"/>
        <path d="M72 153c18-19 38-31 61-35" fill="none" stroke="#db2777" stroke-width="8" stroke-linecap="round"/>
      
  </g>
</svg>
