<svg xmlns="http://www.w3.org/2000/svg" width="512" height="512" viewBox="0 0 256 256" role="img">
  <defs>
    <radialGradient id="glow" cx="50%" cy="48%" r="55%">
      <stop offset="0" stop-color="#fefce8"/>
      <stop offset="1" stop-color="transparent"/>
    </radialGradient>
    <filter id="softShadow" x="-20%" y="-20%" width="140%" height="150%">
      <feDropShadow dx="0" dy="10" stdDeviation="8" flood-color="#0f172a" flood-opacity=".18"/>
    </filter>
  </defs>
  <rect width="256" height="256" fill="none"/>
  <circle cx="128" cy="128" r="112" fill="url(#glow)"/>
  <g filter="url(#softShadow)">
    
    <ellipse cx="128" cy="190" rx="86" ry="10" fill="rgba(15,23,42,.16)"/>
  
        <path d="M39 163c33 6 80 7 139 1 22-2 37 4 45 18 4 7-1 13-12 14H57c-18 0-27-12-18-33z" fill="#fef3c7" stroke="#78350f" stroke-width="4" stroke-linejoin="round"/>
        <path d="M68 160c14-25 35-39 62-40 31-2 54 12 68 39" fill="none" stroke="#d97706" stroke-width="14" stroke-linecap="round"/>
        <path d="M85 161c10-15 24-23 42-24 20-1 36 7 47 23" fill="none" stroke="#fff7ed" stroke-width="7" stroke-linecap="round"/>
        <path d="M44 183h174" stroke="#d97706" stroke-width="10" stroke-linecap="round"/>
      
  </g>
</svg>
